<svg xmlns="http://www.w3.org/2000/svg" viewBox="0 0 1214.97 204.83"><defs><style>.cls-1{fill:#7255b4;}</style></defs><g id="Capa_2" data-name="Capa 2"><g id="Capa_1-2" data-name="Capa 1"><path class="cls-1" d="M65.2,59.07a75.52,75.52,0,0,0-29.67,5.71A56.8,56.8,0,0,0,13.24,81.22,46.3,46.3,0,0,0,3.07,107H32.6q1.95-11.7,11-17.69a37.74,37.74,0,0,1,21.31-6q13.93,0,22.71,8.08t8.78,24.24v2.51H60.18q-29,0-44.58,11.7T0,161.61a41.15,41.15,0,0,0,5.57,21q5.58,9.62,17,15.47t29,5.85q18.11,0,29.25-7.81a52.38,52.38,0,0,0,17-19.22l2.51,23.68h25.63v-85q0-26.19-15.88-41.38T65.2,59.07m25.22,100A38.6,38.6,0,0,1,77.6,174.28Q69.38,180,57.4,180,45.13,180,38,174.56t-7.1-14.91a19.12,19.12,0,0,1,7.38-15.32q7.38-6.12,24.94-6.13H96.13a61.31,61.31,0,0,1-5.71,20.9"/><rect class="cls-1" x="132.63" width="29.53" height="200.61"/><path class="cls-1" d="M266.74,137.88c0,10-1.24,22.06-8.19,29.89-11.75,13.24-36.78,14.46-48.57.44-6.95-8.26-8.43-19.91-8.43-30.33V61.54H172V141q0,30.93,14.35,46.53c14.37,15.62,38.15,18.52,58.21,17,13.72-1.07,27.93-6.72,37.36-17q14.35-15.6,14.36-46.53V61.54H266.74Z"/><path class="cls-1" d="M577.78,60.24c-13.72,1.06-27.93,6.71-37.36,17s-14.36,25.91-14.36,46.53v79.42h29.55V126.82c0-10,1.24-22.06,8.19-29.89,11.75-13.24,36.78-14.46,48.57-.44,7,8.26,8.43,19.91,8.43,30.33v76.34h29.54V123.74q0-30.93-14.35-46.53c-14.37-15.62-38.15-18.52-58.21-17"/><path class="cls-1" d="M353.57,89.86a38.76,38.76,0,0,1,20.07-5.43q12.81,0,22.29,6.4a29.14,29.14,0,0,1,12.26,17.84h30.92q-5-22.85-22.43-36.23t-43-13.37q-20.36,0-36.37,9.19a65.52,65.52,0,0,0-25.07,25.5q-9.06,16.3-9.06,37.75t9.06,37.76a65.49,65.49,0,0,0,25.07,25.49q16,9.19,36.37,9.2,25.62,0,43.18-13.66a59.8,59.8,0,0,0,22.29-35.94H408.19a29.2,29.2,0,0,1-12.26,18.11q-9.48,6.42-22.29,6.41a38,38,0,0,1-20.07-5.57,40.51,40.51,0,0,1-14.76-16q-5.58-10.46-5.58-25.78t5.58-25.77a39.45,39.45,0,0,1,14.76-15.88"/><path class="cls-1" d="M722.41,59.07a75.61,75.61,0,0,0-29.68,5.71,56.87,56.87,0,0,0-22.29,16.44A46.44,46.44,0,0,0,660.27,107h29.54q1.94-11.7,11-17.69a37.77,37.77,0,0,1,21.32-6q13.92,0,22.71,8.08t8.77,24.24v2.51H717.39q-29,0-44.58,11.7t-15.6,31.77a41.15,41.15,0,0,0,5.57,21q5.57,9.62,17,15.47t29,5.85q18.12,0,29.26-7.81a52.35,52.35,0,0,0,17-19.22l2.51,23.68h25.64v-85q0-26.19-15.88-41.38T722.41,59.07m25.21,100a38.52,38.52,0,0,1-12.82,15.18Q726.58,180,714.6,180q-12.26,0-19.36-5.44t-7.1-14.91a19.09,19.09,0,0,1,7.38-15.32q7.38-6.12,24.94-6.13h32.87a60.86,60.86,0,0,1-5.71,20.9"/><path class="cls-1" d="M1041.11,83.59a47.39,47.39,0,0,0-19.36-18.11q-12.4-6.41-28.84-6.41-20.07,0-35.53,9.33A64.71,64.71,0,0,0,933.28,94q-8.64,16.29-8.64,37.19t8.64,37.34a65.68,65.68,0,0,0,24,25.91Q972.56,204,992.63,204q18.39,0,30.09-7.53a63.43,63.43,0,0,0,18.39-17.27l3.06,21.45h26.47V0h-29.53ZM1029,165.23q-12.12,13.1-31.07,13.09a42.37,42.37,0,0,1-22.43-6A41.51,41.51,0,0,1,960,155.75a51.16,51.16,0,0,1-5.58-24.24q0-20.89,12.27-33.85t31.2-13q18.95,0,31.07,13t12.12,33.85q0,20.63-12.12,33.72"/><path class="cls-1" d="M1205.64,93.48a67.1,67.1,0,0,0-25.08-25.35q-15.74-9.06-35.52-9.06a70.14,70.14,0,0,0-35.39,9.06,66.65,66.65,0,0,0-25.21,25.35q-9.35,16.3-9.34,38t9.2,38a66.09,66.09,0,0,0,24.93,25.35Q1125,204,1144.76,204a70.7,70.7,0,0,0,35.66-9.06,66.81,66.81,0,0,0,25.22-25.35q9.33-16.31,9.33-38t-9.33-38M1179,157.56a38.84,38.84,0,0,1-14.63,15.75,38.25,38.25,0,0,1-19.64,5.29,37.53,37.53,0,0,1-19.51-5.29,39.22,39.22,0,0,1-14.49-15.75q-5.57-10.44-5.57-26.05t5.57-26a38.87,38.87,0,0,1,14.63-15.74,38.08,38.08,0,0,1,53.78,15.74q5.43,10.46,5.43,26.05T1179,157.56"/><path class="cls-1" d="M844.19,60.24c-13.72,1.06-27.93,6.71-37.36,17s-14.35,25.91-14.35,46.53v79.42H822V126.82c0-10,1.25-22.06,8.19-29.89C842,83.69,867,82.47,878.78,96.49c7,8.26,8.43,19.91,8.43,30.33v76.34h29.54V123.74q0-30.93-14.35-46.53c-14.37-15.62-38.15-18.52-58.21-17"/><polygon class="cls-1" points="473.57 59.08 441.79 59.08 480.07 176.14 466.38 176.14 475.76 204.83 507.54 204.83 498.16 176.14 511.85 176.14 473.57 59.08"/></g></g></svg>